<svg xmlns="http://www.w3.org/2000/svg" viewBox="0 0 500 500"><defs><style>.cls-1,.cls-4{fill:#263238;}.cls-2,.cls-3{fill:#d84315;}.cls-3{font-size:82.16px;font-family:RobotoCondensed-BoldItalic, Roboto Condensed;font-weight:700;font-style:italic;letter-spacing:0.05em;}.cls-4{font-size:21.37px;font-family:Montserrat-SemiBold, Montserrat;font-weight:600;letter-spacing:0.24em;}.cls-5{letter-spacing:0.24em;}.cls-6{letter-spacing:0.22em;}.cls-7{letter-spacing:0.23em;}.cls-8{letter-spacing:0.23em;}.cls-9{letter-spacing:0.24em;}</style></defs><title>Mesa de trabajo 1 copy</title><g id="OBJECTS"><path class="cls-1" d="M449.66,226.44a10.64,10.64,0,0,0-.07-1.26l-49-2.22,47.56-2.16a10.85,10.85,0,0,0-3.16-3.41h0l-76-2,62.79-1.62a6.9,6.9,0,0,0-4.78-1.92l-31.94-3.53-14.56-26a19.46,19.46,0,0,0-7.5-7.48l-33.18-2.51H322V282.06h18a6.54,6.54,0,0,0,6.47-7.54,32.19,32.19,0,0,1-.24-8.46,32.89,32.89,0,0,1,65.61,3.35,33.89,33.89,0,0,1-.42,5.16,6.52,6.52,0,0,0,6.48,7.49h20.74A11.08,11.08,0,0,0,449.66,271v-.34l-27.74-1.25,27.74-1.25ZM330.44,207.58V178.7h31.31a10.33,10.33,0,0,1,9.06,5.07.35.35,0,0,0,0,.06l13.34,23.75Z"/><path class="cls-1" d="M378.86,243.55a25.85,25.85,0,1,0,25.86,25.84A25.84,25.84,0,0,0,378.86,243.55Zm0,38.53a12.68,12.68,0,1,1,12.69-12.69A12.7,12.7,0,0,1,378.86,282.08Z"/><path class="cls-2" d="M304.47,196A41.84,41.84,0,0,0,280,157.89h0a41.87,41.87,0,0,0-17.31-3.75H51.14A36.82,36.82,0,0,0,88,191H245.12a11.76,11.76,0,0,1,11.37,8.72H88.39a36.83,36.83,0,0,0,36.83,36.83h132.1a11.77,11.77,0,0,1,11.37,8.72h-143a36.83,36.83,0,0,0,36.83,36.83h142Z"/><text class="cls-3" transform="translate(97.03 362.47)">EXPRESS</text><text class="cls-4" transform="translate(115.19 395.27)">DEL<tspan class="cls-5" x="60.16" y="0">I</tspan><tspan class="cls-6" x="72" y="0">V</tspan><tspan x="92.39" y="0">E</tspan><tspan class="cls-7" x="111.84" y="0">R</tspan><tspan x="132.38" y="0">Y SER</tspan><tspan class="cls-8" x="221.43" y="0">V</tspan><tspan class="cls-9" x="241.82" y="0">ICE</tspan></text><path class="cls-1" d="M316.73,282.06H310V165.68a25.41,25.41,0,0,0-25.38-25.38h-2.25v-6.68h2.25a32.1,32.1,0,0,1,32.07,32.06Z"/><path class="cls-1" d="M361.77,170.71l-21.95,1.66H322v-11h15.9A35.24,35.24,0,0,1,361.77,170.71Z"/></g></svg>